<?xml version="1.0" encoding="UTF-8" standalone="no"?><!DOCTYPE svg PUBLIC "-//W3C//DTD SVG 1.1//EN" "http://www.w3.org/Graphics/SVG/1.1/DTD/svg11.dtd"><svg width="70%" height="70%" viewBox="0 0 1067 1067" version="1.1" xmlns="http://www.w3.org/2000/svg" xmlns:xlink="http://www.w3.org/1999/xlink" xml:space="preserve" xmlns:serif="http://www.serif.com/" style="fill-rule:evenodd;clip-rule:evenodd;stroke-linejoin:round;stroke-miterlimit:2;"><g><circle cx="533.333" cy="533.333" r="533.333" style="fill:#2aa8d7;"/><path d="M512.199,517.715l199.426,-199.934c14.85,-14.849 38.937,-14.849 53.786,0l53.785,53.969c14.854,14.849 14.854,39.116 0,53.965l-265.961,266.215c-0.761,1.089 -1.592,2.174 -2.462,2.9l-53.825,53.965c-7.423,7.243 -17.238,11.227 -27.018,11.227c-9.779,0 -19.559,-3.984 -27.021,-11.227l-53.786,-53.965c-0.87,-0.726 -1.701,-1.811 -2.462,-2.9l-139.194,-139.447c-14.849,-14.85 -14.849,-38.753 0,-53.602l53.786,-53.969c14.853,-14.849 38.975,-14.849 53.824,-0l105.401,105.401l9.523,9.417l107.754,106.845l-65.556,-148.86Z" style="fill:#fff;"/></g></svg>